<svg xmlns="http://www.w3.org/2000/svg" viewBox="0 0 512 512"><path d="M503.5 136.5H191.3l308.2-51.7c4.6-.8 7.8-5.1 7-9.8L495.8 7.3c-.4-2.2-1.6-4.2-3.4-5.6-1.8-1.3-4.2-1.9-6.4-1.5l-356.7 59c-4.7.8-7.8 5.2-7 9.8.8 4.7 5.1 7.8 9.8 7l35.6-5.9 35.5 47-25.1 4.2c-4.7.8-7.8 5.2-7 9.8.5 2.8 2.3 4.9 4.6 6.1-2.9 1.3-5 4.3-5 7.7 0 4.7 3.8 8.5 8.5 8.5h34.1l-38.4 51.2H145c-4.7 0-8.5 3.8-8.5 8.5s3.8 8.5 8.5 8.5h349.9v247.5c0 14.1-11.5 25.6-25.6 25.6H42.7c-14.1 0-25.6-11.5-25.6-25.6v-384h72.5l44.8 59.7-44.8 59.7H42.7c-4.7 0-8.5 3.8-8.5 8.5s3.8 8.5 8.5 8.5h51.2c2.7 0 5.2-1.3 6.8-3.4l51.2-68.3c2.3-3 2.3-7.2 0-10.2l-51.2-68.3c-1.6-2.1-4.1-3.4-6.8-3.4H8.5C3.8 68.2 0 72 0 76.7v392.5c0 23.5 19.1 42.7 42.7 42.7h426.7c23.5 0 42.7-19.1 42.7-42.7V145c-.1-4.7-3.9-8.5-8.6-8.5zM480.3 18.4l8.1 50.9-33.3 5.6-34.8-46.6 60-9.9zm-79 13.1l34.9 46.6-60.8 10.2-34.8-46.7 60.7-10.1zm-79.7 13.2l34.8 46.8-55 9.2-35-46.9 55.2-9.1zM186.7 67l60.8-10.1 35 46.9-60.4 10.1L186.7 67zm9.6 137.7l38.4-51.2h55.5l-38.4 51.2h-55.5zm76.8 0l38.4-51.2H367l-38.4 51.2h-55.5zm76.8 0l38.4-51.2h55.5l-38.4 51.2h-55.5zm145 0h-68.3l38.4-51.2h29.9v51.2z"/><path d="M315.7 247.4c-4.7 0-8.5 3.8-8.5 8.5v128H59.7c-4.7 0-8.5 3.8-8.5 8.5s3.8 8.5 8.5 8.5h392.5c4.7 0 8.5-3.8 8.5-8.5s-3.8-8.5-8.5-8.5h-128v-128c.1-4.7-3.7-8.5-8.5-8.5z"/></svg>