<svg xmlns="http://www.w3.org/2000/svg" viewBox="0 0 512 512"><path d="M136.5 51.2c0-9.4-7.7-17.1-17.1-17.1 -9.4 0-17.1 7.7-17.1 17.1 0 9.4 7.7 17.1 17.1 17.1C128.9 68.3 136.5 60.6 136.5 51.2z"/><path d="M119.6 93.9c-4.7 0-8.5 3.8-8.5 8.5 0 4.7 3.9 8.5 8.6 8.5 4.7 0 8.5-3.8 8.5-8.5 0-4.7-3.8-8.5-8.5-8.5H119.6z"/><path d="M119.5 170.7c9.4 0 17.1-7.7 17.1-17.1 0-9.4-7.7-17.1-17.1-17.1 -9.4 0-17.1 7.7-17.1 17.1C102.4 163 110.1 170.7 119.5 170.7z"/><path d="M85.3 102.4c0-9.4-7.7-17.1-17.1-17.1 -9.4 0-17.1 7.7-17.1 17.1 0 9.4 7.7 17.1 17.1 17.1C77.7 119.5 85.3 111.8 85.3 102.4z"/><path d="M366.9 187.7h-307.2c-23.5 0-42.7 19.1-42.7 42.7v76.8H8.5c-4.7 0-8.5 3.8-8.5 8.5v51.2c0 4.7 3.8 8.5 8.5 8.5h8.5v76.8c0 23.5 19.1 42.7 42.7 42.7h128v8.5c0 4.7 3.8 8.5 8.5 8.5 4.7 0 8.5-3.8 8.5-8.5V486.4c0-4.7-3.8-8.5-8.5-8.5H59.7c-14.1 0-25.6-11.5-25.6-25.6v-85.3c0-4.7-3.8-8.5-8.5-8.5h-8.5v-34.1H25.6c4.7 0 8.5-3.8 8.5-8.5V230.4c0-14.1 11.5-25.6 25.6-25.6h307.2c14.1 0 25.6 11.5 25.6 25.6v221.9c0 14.1-11.5 25.6-25.6 25.6H230.4c-4.7 0-8.5 3.8-8.5 8.5s3.8 8.5 8.5 8.5h136.5c23.5 0 42.7-19.1 42.7-42.7V230.4C409.6 206.9 390.5 187.7 366.9 187.7z"/><path d="M170.7 324.3c9.4 0 17.1 7.7 17.1 17.1 0 4.7 3.8 8.5 8.5 8.5 4.7 0 8.5-3.8 8.5-8.5 0-18.8-15.3-34.1-34.1-34.1 -18.8 0-34.1 15.3-34.1 34.1 0 18.8 15.3 34.1 34.1 34.1H256c18.8 0 34.1-15.3 34.1-34.1 0-18.8-15.3-34.1-34.1-34.1 -18.8 0-34.1 15.3-34.1 34.1 0 4.7 3.8 8.5 8.5 8.5 4.7 0 8.5-3.8 8.5-8.5 0-9.4 7.7-17.1 17.1-17.1 9.4 0 17.1 7.7 17.1 17.1 0 9.4-7.7 17.1-17.1 17.1h-85.3c-9.4 0-17.1-7.7-17.1-17.1C153.6 331.9 161.3 324.3 170.7 324.3z"/><path d="M187.7 102.4c0-9.4-7.7-17.1-17.1-17.1 -9.4 0-17.1 7.7-17.1 17.1 0 9.4 7.7 17.1 17.1 17.1C180.1 119.5 187.7 111.8 187.7 102.4z"/><path d="M307.2 0c-42 0-78.1 25.4-93.9 61.6C197.5 25.4 161.4 0 119.5 0c-56.5 0-102.4 45.9-102.4 102.4 0 23.7 8.3 46.9 23.4 65.2 3 3.6 8.4 4.1 12 1.1s4.1-8.4 1.1-12c-12.6-15.2-19.5-34.5-19.5-54.3 0-47.1 38.3-85.3 85.3-85.3 47.1 0 85.3 38.3 85.3 85.3 0 19.8-6.9 39.1-19.5 54.3 -3 3.6-2.5 9 1.1 12 1.6 1.3 3.5 2 5.4 2 2.5 0 4.9-1.1 6.6-3.1 6.1-7.4 11.1-15.7 14.9-24.4 3.8 8.7 8.7 17 14.9 24.4 3 3.6 8.4 4.1 12 1.1 3.6-3 4.1-8.4 1.1-12 -12.6-15.2-19.5-34.5-19.5-54.3 0-47.1 38.3-85.3 85.3-85.3 47.1 0 85.3 38.3 85.3 85.3 0 19.8-6.9 39.1-19.5 54.3 -3 3.6-2.5 9 1.1 12 1.6 1.3 3.5 2 5.4 2 2.5 0 4.9-1.1 6.6-3.1 15.1-18.3 23.4-41.4 23.4-65.2C409.6 45.9 363.7 0 307.2 0z"/><path d="M375.5 102.4c0-9.4-7.7-17.1-17.1-17.1 -9.4 0-17.1 7.7-17.1 17.1 0 9.4 7.7 17.1 17.1 17.1C367.8 119.5 375.5 111.8 375.5 102.4z"/><path d="M504 249.7c-5.1-3-11.2-2.9-17 0.2l-56 31.9c-4.1 2.3-5.5 7.5-3.2 11.6 2.3 4.1 7.6 5.5 11.6 3.2l55.5-31.5v167.9l-55.5-31.7c-4.1-2.4-9.3-0.9-11.6 3.2 -2.3 4.1-0.9 9.3 3.2 11.6l55.8 31.9c2.5 1.5 5.4 2.3 8.3 2.3 2.8 0 5.7-0.7 8.3-2.2 5.3-3 8.7-8.4 8.7-13.8V263.6C512 258 508.9 252.6 504 249.7z"/><path d="M307.4 93.9c-4.7 0-8.5 3.8-8.5 8.5 0 4.7 3.9 8.5 8.6 8.5 4.7 0 8.5-3.8 8.5-8.5 0-4.7-3.8-8.5-8.5-8.5H307.4z"/><path d="M324.3 51.2c0-9.4-7.7-17.1-17.1-17.1 -9.4 0-17.1 7.7-17.1 17.1 0 9.4 7.7 17.1 17.1 17.1C316.6 68.3 324.3 60.6 324.3 51.2z"/><path d="M307.2 170.7c9.4 0 17.1-7.7 17.1-17.1 0-9.4-7.7-17.1-17.1-17.1 -9.4 0-17.1 7.7-17.1 17.1C290.1 163 297.8 170.7 307.2 170.7z"/><path d="M273.1 102.4c0-9.4-7.7-17.1-17.1-17.1 -9.4 0-17.1 7.7-17.1 17.1 0 9.4 7.7 17.1 17.1 17.1C265.4 119.5 273.1 111.8 273.1 102.4z"/></svg>