<svg xmlns="http://www.w3.org/2000/svg" viewBox="0 0 512 512"><path d="M323.6 116.4c-1.3-3.2-4.4-5.2-7.9-5.2h-33l-19.1-38.2c-2.9-5.8-12.4-5.8-15.3 0l-19.1 38.2h-33c-3.5 0-6.6 2.1-7.9 5.3 -1.3 3.2-0.5 6.9 1.9 9.3l28.5 27.8 -13.5 39.9c-1.1 3.4-0.1 7.1 2.7 9.3 1.6 1.3 3.5 1.9 5.4 1.9 1.5 0 2.9-0.4 4.3-1.1l39.2-22.7 37.5 22.6c3 1.8 6.9 1.6 9.7-0.6 2.8-2.2 4-5.8 2.9-9.2l-12.2-40.2 27.2-27.9C324.2 123.2 324.9 119.5 323.6 116.4zM278.9 145.2c-2.2 2.2-3 5.5-2.1 8.4l7.2 23.8 -22.8-13.7c-2.7-1.6-6-1.6-8.7-0.1l-23.9 13.8 8-23.5c1.1-3.1 0.2-6.6-2.1-8.8l-17.3-16.9h17.3c3.2 0 6.2-1.8 7.6-4.7l13.8-27.6 13.8 27.6c1.5 2.9 4.4 4.7 7.6 4.7h18.1L278.9 145.2z"/><path d="M93.9 256h25.6v17.1c0 4.7 3.8 8.5 8.5 8.5s8.5-3.8 8.5-8.5v-25.6c0-4.7-3.8-8.5-8.5-8.5h-25.6v-204.8h307.2v204.8h-25.6c-4.7 0-8.5 3.8-8.5 8.5v25.6c0 4.7 3.8 8.5 8.5 8.5s8.5-3.8 8.5-8.5V256h25.6c4.7 0 8.5-3.8 8.5-8.5V25.6c0-4.7-3.8-8.5-8.5-8.5h-25.6V8.5c0-4.7-3.8-8.5-8.5-8.5s-8.5 3.8-8.5 8.5v8.5H136.5V8.5c0-4.7-3.8-8.5-8.5-8.5s-8.5 3.8-8.5 8.5v8.5h-25.6c-4.7 0-8.5 3.8-8.5 8.5v221.9C85.3 252.2 89.2 256 93.9 256z"/><path d="M153.6 247.5c0 4.7 3.8 8.5 8.5 8.5h187.7c4.7 0 8.5-3.8 8.5-8.5s-3.8-8.5-8.5-8.5H162.1C157.4 238.9 153.6 242.8 153.6 247.5z"/><path d="M73.1 340.5l146.3 69.6c1.2 0.6 2.4 0.8 3.7 0.8 3.2 0 6.2-1.8 7.7-4.9 2-4.3 0.2-9.3-4-11.4L80.5 325.1c-4.2-2-9.4-0.2-11.4 4S68.9 338.5 73.1 340.5z"/><path d="M477.3 287c-1.7-4.4-6.7-6.5-11.1-4.8 -0.9 0.3-86.8 33.5-210.2 33.5 -123.4 0-209.4-33.2-210.2-33.5 -4.4-1.7-9.3 0.4-11.1 4.8 -1.7 4.4 0.4 9.3 4.8 11.1 3.6 1.4 89.6 34.7 216.5 34.7 126.9 0 212.9-33.3 216.5-34.7C476.8 296.3 479 291.4 477.3 287z"/><path d="M438.9 495.8l-144.9-69c-4.3-2-9.4-0.2-11.4 4 -2 4.3-0.2 9.4 4 11.4l144.9 69c1.2 0.6 2.4 0.8 3.7 0.8 3.2 0 6.2-1.8 7.7-4.9C444.9 502.9 443.1 497.8 438.9 495.8z"/><path d="M431.5 325.1l-358.4 170.7c-4.3 2-6.1 7.1-4 11.4 1.5 3.1 4.5 4.9 7.7 4.9 1.2 0 2.5-0.3 3.7-0.8l358.4-170.7c4.3-2 6.1-7.1 4-11.4C440.9 324.9 435.8 323.1 431.5 325.1z"/></svg>