<svg xmlns="http://www.w3.org/2000/svg" viewBox="0 0 512 512"><path d="M469.3 68.3H307.2V42.7c0-4.7-3.8-8.5-8.5-8.5s-8.5 3.8-8.5 8.5v25.6H170.7c-4.7 0-8.5 3.8-8.5 8.5s3.8 8.5 8.5 8.5h298.7c14.1 0 25.6 11.5 25.6 25.6v384H153.6v-384c0-23.5-19.1-42.7-42.7-42.7-9.6 0-18.4 3.3-25.6 8.7V42.7c0-4.7-3.8-8.5-8.5-8.5s-8.5 3.8-8.5 8.5v25.6H42.7c-4.7 0-8.5 3.8-8.5 8.5s3.8 8.5 8.5 8.5h25.6v34.1H42.7c-4.7 0-8.5 3.8-8.5 8.5s3.8 8.5 8.5 8.5h25.6v34.1H42.7c-4.7 0-8.5 3.8-8.5 8.5s3.8 8.5 8.5 8.5h25.6v34.1H42.7c-4.7 0-8.5 3.8-8.5 8.5s3.8 8.5 8.5 8.5h25.6v34.1H42.7c-4.7 0-8.5 3.8-8.5 8.5s3.8 8.5 8.5 8.5h25.6v34.1H42.7c-4.7 0-8.5 3.8-8.5 8.5s3.8 8.5 8.5 8.5h25.6v34.1H42.7c-4.7 0-8.5 3.8-8.5 8.5s3.8 8.5 8.5 8.5h25.6v8.5c0 14.1-11.5 25.6-25.6 25.6s-25.6-11.5-25.6-25.6v-384h341.3V42c0 4.7 3.8 8.5 8.5 8.5s8.5-3.8 8.5-8.5V8.5c0-4.7-3.8-8.5-8.5-8.5H8.5C3.8 0 0 3.8 0 8.5V401c0 23.5 19.1 42.7 42.7 42.7 23.5 0 42.7-19.1 42.7-42.7V110.9c0-14.1 11.5-25.6 25.6-25.6s25.6 11.5 25.6 25.6v315.7H93.9c-4.7 0-8.5 3.8-8.5 8.5s3.8 8.5 8.5 8.5h42.7v59.7c0 4.7 3.8 8.5 8.5 8.5h358.4c4.7 0 8.5-3.8 8.5-8.5V110.9c0-23.5-19.1-42.6-42.7-42.6z"/><path d="M179.2 443.7c-4.7 0-8.5 3.8-8.5 8.5s3.8 8.5 8.5 8.5h25.6v8.5c0 4.7 3.8 8.5 8.5 8.5s8.5-3.8 8.5-8.5V204.8H401c4.7 0 8.5-3.8 8.5-8.5s-3.8-8.5-8.5-8.5H221.8V111c0-4.7-3.8-8.5-8.5-8.5s-8.5 3.8-8.5 8.5v25.6h-25.6c-4.7 0-8.5 3.8-8.5 8.5s3.8 8.5 8.5 8.5h25.6v34.1h-25.6c-4.7 0-8.5 3.8-8.5 8.5s3.8 8.5 8.5 8.5h25.6v34.1h-25.6c-4.7 0-8.5 3.8-8.5 8.5s3.8 8.7 8.5 8.7h25.6v34.1h-25.6c-4.7 0-8.5 3.8-8.5 8.5s3.8 8.5 8.5 8.5h25.6v34.1h-25.6c-4.7 0-8.5 3.8-8.5 8.5s3.8 8.5 8.5 8.5h25.6v34.1h-25.6c-4.7 0-8.5 3.8-8.5 8.5s3.8 8.5 8.5 8.5h25.6v34.1h-25.6z"/><path d="M435.2 102.4c-4.7 0-8.5 3.8-8.5 8.5v281.6H247.5c-4.7 0-8.5 3.8-8.5 8.5s3.8 8.5 8.5 8.5h179.2v59.7c0 4.7 3.8 8.5 8.5 8.5s8.5-3.8 8.5-8.5v-8.4h25.6c4.7 0 8.5-3.8 8.5-8.5s-3.8-8.5-8.5-8.5h-25.6v-34.2h25.6c4.7 0 8.5-3.8 8.5-8.5s-3.8-8.5-8.5-8.5h-25.6v-34.2h25.6c4.7 0 8.5-3.8 8.5-8.5s-3.8-8.5-8.5-8.5h-25.6v-34.2h25.6c4.7 0 8.5-3.8 8.5-8.5s-3.8-8.5-8.5-8.5h-25.6V256h25.6c4.7 0 8.5-3.8 8.5-8.5s-3.8-8.5-8.5-8.5h-25.6v-34.2h25.6c4.7 0 8.5-3.8 8.5-8.5s-3.8-8.5-8.5-8.5h-25.6v-34.2h25.6c4.7 0 8.5-3.8 8.5-8.5s-3.8-8.5-8.5-8.5h-25.6V111c0-4.8-3.8-8.6-8.5-8.6z"/></svg>