<svg xmlns="http://www.w3.org/2000/svg" viewBox="0 0 512 512"><path d="M435.5 443.7h-.1c-4.7 0-8.5 3.8-8.5 8.5s3.9 8.5 8.6 8.5c4.7 0 8.5-3.8 8.5-8.5 0-4.6-3.8-8.5-8.5-8.5zM307.2 204.8c-4.7 0-8.5 3.8-8.5 8.5s3.8 8.5 8.5 8.5c9.3 0 24.2 2.1 28.1 6 3.9 3.9 6 18.8 6 28.1 0 4.7 3.8 8.5 8.5 8.5s8.5-3.8 8.5-8.5c0-4.9-.5-29.7-11-40.2-10.4-10.4-35.2-10.9-40.1-10.9z"/><path d="M351.9 162.4c-1.4-.4-36.2-8.8-130.1-8.8S93.2 162 92 162.3c-25.4 5.6-42.4 22.5-49.1 48.9-.4 1.4-8.8 35.9-8.8 104.5s8.4 103 8.8 104.7c7.1 26 23 41.9 48.8 48.7 1.4.4 36.2 8.8 130.1 8.8s128.6-8.4 129.7-8.7c24.2-4.9 41.2-21.8 49.2-48.9.4-1.4 8.8-35.9 8.8-104.5s-8.4-103-8.7-104.2c-5.3-25.5-22.2-42.4-48.9-49.2zm32.5 253.3c-6.2 21-18.1 33-36.5 36.8-.3.1-34.8 8.3-125.9 8.3s-125.6-8.2-125.8-8.3C76.4 447.3 65.1 436 59.6 416c-.1-.3-8.3-34.2-8.3-100.3s8.2-100 8.3-100.3c5.1-20.3 17-32.2 36.5-36.5.3-.1 34.8-8.3 125.9-8.3s125.6 8.2 125.9 8.3c20.4 5.2 32.4 17 36.5 36.5.1.3 8.3 34.2 8.3 100.3-.2 66.1-8.4 100-8.3 100z"/><path d="M349.9 281.6c-4.7 0-8.5 3.8-8.5 8.5v8.5c0 4.7 3.8 8.5 8.5 8.5s8.5-3.8 8.5-8.5v-8.5c0-4.7-3.8-8.5-8.5-8.5zM200.1 75.6c-4 4.2-7.6 8.8-10.5 14-2.4 4.1-1 9.3 3.1 11.7 4.1 2.4 9.3 1 11.7-3.1 10.7-18.4 30.5-29.9 51.7-29.9 21.2 0 41 11.5 51.7 29.9 1.6 2.7 4.4 4.3 7.4 4.3 1.5 0 2.9-.4 4.3-1.2 4.1-2.4 5.5-7.6 3.1-11.7-3-5.1-6.6-9.7-10.5-14l61.1-61.1c3.3-3.3 3.3-8.7 0-12.1-3.3-3.3-8.7-3.3-12.1 0l-62.1 62c-12.5-8.5-27.3-13.3-42.8-13.3s-30.3 4.9-42.8 13.3L151.1 2.5c-3.3-3.3-8.7-3.3-12.1 0-3.3 3.3-3.3 8.7 0 12.1l61.1 61zM452.3 221.9c14.1 0 25.6-11.5 25.6-25.6s-11.5-25.6-25.6-25.6c-14.1 0-25.6 11.5-25.6 25.6s11.5 25.6 25.6 25.6zm0-34.2c4.7 0 8.5 3.8 8.5 8.5s-3.8 8.5-8.5 8.5-8.5-3.8-8.5-8.5c-.1-4.6 3.8-8.5 8.5-8.5zM469.6 341.3h-.1c-4.7 0-8.5 3.8-8.5 8.5s3.9 8.5 8.6 8.5c4.7 0 8.5-3.8 8.5-8.5s-3.8-8.5-8.5-8.5zM469.6 375.5h-.1c-4.7 0-8.5 3.8-8.5 8.5s3.9 8.5 8.6 8.5c4.7 0 8.5-3.8 8.5-8.5s-3.8-8.5-8.5-8.5zM469.6 409.6h-.1c-4.7 0-8.5 3.8-8.5 8.5s3.9 8.5 8.6 8.5c4.7 0 8.5-3.8 8.5-8.5s-3.8-8.5-8.5-8.5z"/><path d="M460.8 119.5H51.2C23 119.5 0 142.5 0 170.7v290.1C0 489 23 512 51.2 512h409.6c28.2 0 51.2-23 51.2-51.2V170.7c0-28.3-23-51.2-51.2-51.2zm34.1 341.3c0 18.8-15.3 34.1-34.1 34.1H51.2c-18.8 0-34.1-15.3-34.1-34.1V170.7c0-18.8 15.3-34.1 34.1-34.1h409.6c18.8 0 34.1 15.3 34.1 34.1v290.1z"/><path d="M469.6 443.7h-.1c-4.7 0-8.5 3.8-8.5 8.5s3.9 8.5 8.6 8.5c4.7 0 8.5-3.8 8.5-8.5 0-4.6-3.8-8.5-8.5-8.5zM435.5 409.6h-.1c-4.7 0-8.5 3.8-8.5 8.5s3.9 8.5 8.6 8.5c4.7 0 8.5-3.8 8.5-8.5s-3.8-8.5-8.5-8.5zM435.5 375.5h-.1c-4.7 0-8.5 3.8-8.5 8.5s3.9 8.5 8.6 8.5c4.7 0 8.5-3.8 8.5-8.5s-3.8-8.5-8.5-8.5zM477.9 264.5c0-14.1-11.5-25.6-25.6-25.6-14.1 0-25.6 11.5-25.6 25.6s11.5 25.6 25.6 25.6c14.1 0 25.6-11.4 25.6-25.6zm-25.6 8.6c-4.7 0-8.5-3.8-8.5-8.5s3.8-8.5 8.5-8.5 8.5 3.8 8.5 8.5c0 4.6-3.8 8.5-8.5 8.5zM435.5 341.3h-.1c-4.7 0-8.5 3.8-8.5 8.5s3.9 8.5 8.6 8.5c4.7 0 8.5-3.8 8.5-8.5s-3.8-8.5-8.5-8.5z"/></svg>