<svg xmlns="http://www.w3.org/2000/svg" viewBox="0 0 512 512"><path d="M435.5 443.7h-0.1c-4.7 0-8.5 3.8-8.5 8.5 0 4.7 3.9 8.5 8.6 8.5 4.7 0 8.5-3.8 8.5-8.5C444 447.6 440.2 443.7 435.5 443.7z"/><path d="M307.2 204.8c-4.7 0-8.5 3.8-8.5 8.5 0 4.7 3.8 8.5 8.5 8.5 9.3 0 24.2 2.1 28.1 6 3.9 3.9 6 18.8 6 28.1 0 4.7 3.8 8.5 8.5 8.5 4.7 0 8.5-3.8 8.5-8.5 0-4.9-0.5-29.7-11-40.2C336.9 205.3 312.1 204.8 307.2 204.8z"/><path d="M351.9 162.4c-1.4-0.4-36.2-8.8-130.1-8.8s-128.6 8.4-129.8 8.7c-25.4 5.6-42.4 22.5-49.1 48.9 -0.4 1.4-8.8 35.9-8.8 104.5s8.4 103 8.8 104.7c7.1 26 23 41.9 48.8 48.7 1.4 0.4 36.2 8.8 130.1 8.8s128.6-8.4 129.7-8.7c24.2-4.9 41.2-21.8 49.2-48.9 0.4-1.4 8.8-35.9 8.8-104.5s-8.4-103-8.7-104.2C395.5 186.1 378.6 169.2 351.9 162.4zM384.4 415.7c-6.2 21-18.1 33-36.5 36.8 -0.3 0.1-34.8 8.3-125.9 8.3s-125.6-8.2-125.8-8.3c-19.8-5.2-31.1-16.5-36.6-36.5 -0.1-0.3-8.3-34.2-8.3-100.3s8.2-100 8.3-100.3c5.1-20.3 17-32.2 36.5-36.5 0.3-0.1 34.8-8.3 125.9-8.3s125.6 8.2 125.9 8.3c20.4 5.2 32.4 17 36.5 36.5 0.1 0.3 8.3 34.2 8.3 100.3C392.5 381.8 384.3 415.7 384.4 415.7z"/><path d="M349.9 281.6c-4.7 0-8.5 3.8-8.5 8.5v8.5c0 4.7 3.8 8.5 8.5 8.5s8.5-3.8 8.5-8.5v-8.5C358.4 285.4 354.6 281.6 349.9 281.6z"/><path d="M200.1 75.6c-4 4.2-7.6 8.8-10.5 14 -2.4 4.1-1 9.3 3.1 11.7 4.1 2.4 9.3 1 11.7-3.1 10.7-18.4 30.5-29.9 51.7-29.9 21.2 0 41 11.5 51.7 29.9 1.6 2.7 4.4 4.3 7.4 4.3 1.5 0 2.9-0.4 4.3-1.2 4.1-2.4 5.5-7.6 3.1-11.7 -3-5.1-6.6-9.7-10.5-14l61.1-61.1c3.3-3.3 3.3-8.7 0-12.1 -3.3-3.3-8.7-3.3-12.1 0l-62.1 62c-12.5-8.5-27.3-13.3-42.8-13.3s-30.3 4.9-42.8 13.3L151.1 2.5c-3.3-3.3-8.7-3.3-12.1 0 -3.3 3.3-3.3 8.7 0 12.1L200.1 75.6z"/><path d="M452.3 221.9c14.1 0 25.6-11.5 25.6-25.6s-11.5-25.6-25.6-25.6c-14.1 0-25.6 11.5-25.6 25.6S438.2 221.9 452.3 221.9zM452.3 187.7c4.7 0 8.5 3.8 8.5 8.5 0 4.7-3.8 8.5-8.5 8.5 -4.7 0-8.5-3.8-8.5-8.5C443.7 191.6 447.6 187.7 452.3 187.7z"/><path d="M469.6 341.3h-0.1c-4.7 0-8.5 3.8-8.5 8.5s3.9 8.5 8.6 8.5c4.7 0 8.5-3.8 8.5-8.5S474.3 341.3 469.6 341.3z"/><path d="M469.6 375.5h-0.1c-4.7 0-8.5 3.8-8.5 8.5s3.9 8.5 8.6 8.5c4.7 0 8.5-3.8 8.5-8.5S474.3 375.5 469.6 375.5z"/><path d="M469.6 409.6h-0.1c-4.7 0-8.5 3.8-8.5 8.5s3.9 8.5 8.6 8.5c4.7 0 8.5-3.8 8.5-8.5S474.3 409.6 469.6 409.6z"/><path d="M460.8 119.5h-409.6c-28.2 0-51.2 23-51.2 51.2v290.1c0 28.2 23 51.2 51.2 51.2h409.6c28.2 0 51.2-23 51.2-51.2V170.7C512 142.4 489 119.5 460.8 119.5zM494.9 460.8c0 18.8-15.3 34.1-34.1 34.1h-409.6c-18.8 0-34.1-15.3-34.1-34.1V170.7c0-18.8 15.3-34.1 34.1-34.1h409.6c18.8 0 34.1 15.3 34.1 34.1V460.8z"/><path d="M469.6 443.7h-0.1c-4.7 0-8.5 3.8-8.5 8.5 0 4.7 3.9 8.5 8.6 8.5 4.7 0 8.5-3.8 8.5-8.5C478.1 447.6 474.3 443.7 469.6 443.7z"/><path d="M435.5 409.6h-0.1c-4.7 0-8.5 3.8-8.5 8.5s3.9 8.5 8.6 8.5c4.7 0 8.5-3.8 8.5-8.5S440.2 409.6 435.5 409.6z"/><path d="M435.5 375.5h-0.1c-4.7 0-8.5 3.8-8.5 8.5s3.9 8.5 8.6 8.5c4.7 0 8.5-3.8 8.5-8.5S440.2 375.5 435.5 375.5z"/><path d="M477.9 264.5c0-14.1-11.5-25.6-25.6-25.6 -14.1 0-25.6 11.5-25.6 25.6s11.5 25.6 25.6 25.6C466.4 290.1 477.9 278.7 477.9 264.5zM452.3 273.1c-4.7 0-8.5-3.8-8.5-8.5 0-4.7 3.8-8.5 8.5-8.5 4.7 0 8.5 3.8 8.5 8.5C460.8 269.2 457 273.1 452.3 273.1z"/><path d="M435.5 341.3h-0.1c-4.7 0-8.5 3.8-8.5 8.5s3.9 8.5 8.6 8.5c4.7 0 8.5-3.8 8.5-8.5S440.2 341.3 435.5 341.3z"/></svg>