<svg xmlns="http://www.w3.org/2000/svg" viewBox="0 0 512.2 512.2"><path d="M510.9 210.7c-3.4-10.9-12.4-17.9-24.1-18.6-16.6-1.4-115.6-10.2-139.5-12.3L284 22.4C278.3 8.2 267.2-.3 255.2.2c-11.6.5-21.4 9.5-25.4 22.8-6.1 16.6-47.5 131-56.8 156.8L24.5 192.4c-11.5 1-20.2 7.8-23.3 18.2-3.4 11.6.8 25.2 10.1 32.3 10.2 7.8 93.9 69.1 115.3 84.8l-43 147.5c-6.5 19-.9 28.3 4.9 32.6 10.2 7.7 26.7 3.9 37.7-3.7 12-8.4 106.6-75.9 110.7-78.7 3.8-2.7 4.7-8.1 2-11.9-2.7-3.8-8.1-4.7-11.9-2-1 .7-98.6 70.3-110.5 78.6-7 4.8-15.4 5.8-17.6 4.1-1.2-.9-1.9-5.2 1.1-13.9l44.8-153.6c1-3.4-.3-7.2-3.2-9.3-1.1-.8-108.5-79.4-119.8-88.1-3.6-2.8-5.5-9.2-4.1-14 1.1-3.7 3.8-5.6 8.4-6l153.9-13c3.3-.3 6.2-2.5 7.3-5.6.5-1.4 51.7-143.2 58.8-162.4 2-6.7 5.8-10.9 10-11.1 4.5-.3 9.3 4.3 12.2 11.5L333.6 191c1.2 3 4 5 7.2 5.3 0 0 125.9 11.2 145 12.8 4.8.3 7.8 2.5 9.1 6.6 1.7 5.5-.4 12.2-4.8 15.7L379 317.6c-2.7 2.1-3.9 5.5-3.1 8.8.3 1.2 29.8 120.8 38.3 153.3 1.9 7.3 1.7 12.9-.5 14.5-2.9 2-11 .8-18.1-4.1-16.8-11.7-146-105.9-147.3-106.9-3.8-2.8-9.1-1.9-11.9 1.9-2.8 3.8-1.9 9.1 1.9 11.9 5.3 3.9 130.7 95.3 147.6 107.1 6.6 4.6 15.6 8.1 24 8.1 4.9 0 9.6-1.2 13.6-4 6.1-4.3 12.4-13.4 7.3-32.8-7.5-28.4-31.1-123.9-36.9-147.6L500.6 245c9.7-7.9 14.1-22 10.3-34.3z"/><path d="M324.3 281.7c0-3-1.6-5.8-4.2-7.4l-102.4-59.7c-2.6-1.5-5.9-1.5-8.5 0-2.7 1.5-4.3 4.3-4.3 7.4v119.5c0 3.1 1.6 5.9 4.3 7.4 1.3.8 2.8 1.1 4.3 1.1s3-.4 4.3-1.2l102.4-59.7c2.5-1.5 4.1-4.3 4.1-7.4zm-102.4 44.9v-89.8l76.9 44.9-76.9 44.9z"/></svg>